<?xml version="1.0" encoding="utf-8"?>
<!-- Generator: Adobe Illustrator 16.0.4, SVG Export Plug-In . SVG Version: 6.00 Build 0)  -->
<!DOCTYPE svg PUBLIC "-//W3C//DTD SVG 1.1//EN" "http://www.w3.org/Graphics/SVG/1.1/DTD/svg11.dtd">
<svg version="1.1" id="Layer_1" xmlns="http://www.w3.org/2000/svg" xmlns:xlink="http://www.w3.org/1999/xlink" x="0px" y="0px"
	 width="135px" height="40.45px" viewBox="0 0 135 40.45" enable-background="new 0 0 135 40.45" xml:space="preserve">
<g>
	<g>
		<path fill="#666666" d="M29.942,1.57c0,0.018-0.247,0.018-0.247-0.02c0-0.266-0.057-0.528-0.189-0.678
			c-0.209-0.189-0.491-0.342-1.626-0.342c-0.226,0-0.359,0.018-0.453,0.018c-0.039,0.113-0.058,0.512-0.058,1.154v2.422
			c0,1.852,0.094,2.079,0.229,2.138c0.132,0.073,0.396,0.13,0.812,0.167c0.037,0.019,0.037,0.248,0,0.248c-0.491,0-2.498,0-2.988,0
			c-0.037,0-0.037-0.229,0-0.248c0.415-0.038,0.679-0.094,0.813-0.167c0.132-0.059,0.207-0.286,0.207-2.138V1.703
			c0-0.642,0-1.041-0.039-1.154c-0.094,0-0.282-0.018-0.508-0.018c-1.081,0-1.384,0.112-1.628,0.342
			c-0.17,0.15-0.266,0.455-0.321,0.698c0,0.037-0.247,0-0.247-0.038c0.056-0.51,0.113-1.116,0.151-1.475
			c0-0.018,0.018-0.037,0.058-0.037c0.379,0.057,1.19,0.114,3.005,0.114c2.498,0,2.875-0.058,3.065-0.135
			c0.039,0,0.056,0.021,0.056,0.04C30.037,0.438,30.02,1.023,29.942,1.57z"/>
		<path fill="#666666" d="M35.575,6.678c-0.035,0-0.035-0.229,0-0.248c0.417-0.038,0.586-0.094,0.72-0.167
			c0.133-0.059,0.228-0.286,0.228-2.138V3.518H32.72v0.606c0,1.852,0.096,2.079,0.229,2.138c0.132,0.073,0.302,0.13,0.717,0.167
			c0.038,0.019,0.038,0.248,0.019,0.248c-0.51,0-2.345,0-2.836,0c-0.018,0-0.04-0.229,0.021-0.248
			c0.414-0.038,0.584-0.094,0.717-0.167c0.131-0.059,0.207-0.286,0.207-2.138V2.647c0-1.852-0.076-2.077-0.207-2.136
			c-0.132-0.073-0.303-0.13-0.717-0.188c-0.06,0-0.039-0.23-0.021-0.23c0.491,0,2.326,0,2.836,0c0.019,0,0.019,0.23-0.019,0.23
			c-0.416,0.058-0.585,0.114-0.717,0.188C32.816,0.57,32.72,0.795,32.72,2.647v0.455h3.802V2.647c0-1.852-0.094-2.077-0.228-2.136
			c-0.134-0.073-0.302-0.13-0.72-0.188c-0.035,0-0.035-0.23,0-0.23c0.494,0,2.328,0,2.819,0c0.037,0,0.037,0.23-0.017,0.23
			c-0.399,0.058-0.589,0.114-0.722,0.188c-0.113,0.059-0.209,0.284-0.209,2.136v1.478c0,1.852,0.096,2.079,0.209,2.138
			c0.132,0.073,0.322,0.13,0.722,0.167c0.054,0.019,0.054,0.248,0.017,0.248C37.903,6.678,36.068,6.678,35.575,6.678z"/>
		<path fill="#666666" d="M43.934,6.504c-0.075,0.114-0.134,0.191-0.397,0.191c-0.643,0-1.399-0.036-2.271-0.036
			c-0.677,0-1.096,0-1.833,0.018c-0.039,0-0.039-0.229,0-0.248c0.415-0.038,0.604-0.094,0.717-0.167
			c0.133-0.059,0.229-0.286,0.229-2.138V2.647c0-1.852-0.095-2.077-0.229-2.136c-0.113-0.073-0.302-0.13-0.717-0.188
			c-0.039,0-0.039-0.23,0-0.23c0.813,0.021,2.098,0.021,2.779,0.021c0.869,0,1.363-0.021,1.666-0.037
			c0.055-0.02,0.074,0.017,0.074,0.037c-0.038,0.342-0.058,0.832-0.113,1.363c-0.02,0.055-0.264,0.037-0.264-0.021
			c0-0.265-0.057-0.511-0.208-0.681c-0.171-0.171-0.474-0.265-1.213-0.265c-0.415,0-0.698,0.02-0.813,0.02
			c-0.039,0.112-0.039,0.452-0.039,1.097v1.418h0.777c1.001,0,1.136-0.226,1.191-0.587c0.019-0.036,0.265-0.036,0.265,0
			c-0.017,0.285-0.056,1.493-0.056,1.757c0,0.04-0.265,0.04-0.265,0c0-0.188-0.037-0.452-0.151-0.546
			c-0.096-0.077-0.246-0.189-1.003-0.189h-0.758v0.644c0,1.23,0.099,1.796,0.229,1.946c0.133,0.114,0.265,0.192,0.891,0.192
			c0.643,0,1.001-0.153,1.191-0.362c0.151-0.15,0.265-0.358,0.339-0.699c0.021-0.057,0.207,0,0.188,0.037
			C44.102,5.766,44.008,6.356,43.934,6.504z"/>
		<path fill="#666666" d="M54.558,6.301c-0.132,0.188-0.833,0.468-2.081,0.468c-2.157,0-3.743-1.472-3.743-3.308
			C48.734,1.723,50.132,0,52.459,0c1.189,0,1.795,0.381,2.174,0.303c0.037-0.019,0.055,0.021,0.055,0.036
			c0.021,0.361,0.04,0.91,0.04,1.459c0,0.055-0.265,0.037-0.265-0.021c-0.02-0.264-0.19-0.604-0.398-0.813
			c-0.376-0.36-1-0.583-1.719-0.583c-1.892,0-2.575,1.342-2.575,2.795c0,1.646,1.062,3.18,2.726,3.18
			c0.775,0,1.286-0.135,1.645-0.55c0.207-0.265,0.342-0.587,0.436-0.888c0.017-0.058,0.248,0,0.248,0.037
			C54.785,5.484,54.654,6.167,54.558,6.301z"/>
		<path fill="#666666" d="M60.892,6.678c-0.036,0-0.036-0.229,0-0.248c0.417-0.038,0.585-0.094,0.717-0.167
			c0.133-0.059,0.229-0.286,0.229-2.138V3.518h-3.8v0.606c0,1.852,0.094,2.079,0.226,2.138c0.13,0.073,0.303,0.13,0.717,0.167
			c0.039,0.019,0.039,0.248,0.021,0.248c-0.514,0-2.347,0-2.839,0c-0.019,0-0.036-0.229,0.019-0.248
			c0.417-0.038,0.587-0.094,0.72-0.167c0.132-0.059,0.207-0.286,0.207-2.138V2.647c0-1.852-0.075-2.077-0.207-2.136
			c-0.132-0.073-0.303-0.13-0.72-0.188c-0.055,0-0.038-0.23-0.019-0.23c0.492,0,2.326,0,2.839,0c0.017,0,0.017,0.23-0.021,0.23
			c-0.414,0.058-0.587,0.114-0.717,0.188c-0.132,0.059-0.226,0.284-0.226,2.136v0.455h3.8V2.647c0-1.852-0.095-2.077-0.229-2.136
			c-0.132-0.073-0.301-0.13-0.717-0.188c-0.036,0-0.036-0.23,0-0.23c0.494,0,2.325,0,2.818,0c0.039,0,0.039,0.23-0.019,0.23
			c-0.397,0.058-0.585,0.114-0.72,0.188c-0.112,0.059-0.208,0.284-0.208,2.136v1.478c0,1.852,0.096,2.079,0.208,2.138
			c0.135,0.073,0.323,0.13,0.72,0.167c0.058,0.019,0.058,0.248,0.019,0.248C63.216,6.678,61.385,6.678,60.892,6.678z"/>
		<path fill="#666666" d="M71.122,0.531c-0.094,0.074-0.188,0.265-0.188,2.116v1.705c0,1.21-1.022,2.417-2.668,2.417
			c-1.625,0-2.76-1.075-2.76-2.402V2.647c0-1.852-0.094-2.077-0.226-2.136c-0.132-0.073-0.305-0.13-0.72-0.188
			c-0.039,0-0.039-0.23,0-0.23c0.492,0,2.382,0,2.875,0c0.021,0,0.04,0.23-0.019,0.23c-0.396,0.058-0.624,0.114-0.754,0.188
			c-0.133,0.059-0.229,0.284-0.229,2.136v1.459c0,1.265,0.775,2.078,2.082,2.078c1.285,0,1.892-0.83,1.892-1.968V2.647
			c0-1.852-0.096-2.042-0.19-2.116c-0.113-0.093-0.359-0.149-0.775-0.207c-0.04,0-0.02-0.23,0-0.23c0.51,0,1.908,0,2.401,0
			c0.039,0,0.056,0.23,0,0.23C71.425,0.381,71.236,0.438,71.122,0.531z"/>
		<path fill="#666666" d="M79.139,6.66c-0.643,0-1.171-0.078-1.568-0.358c-0.549-0.343-1.117-1.003-1.949-2.387
			c-0.51,0.019-0.68,0-1.08-0.018v0.229c0,1.852,0.097,2.079,0.228,2.138c0.132,0.073,0.455,0.13,0.91,0.167
			c0.036,0.019,0.036,0.248,0.017,0.248c-0.491,0-2.532,0-3.022,0c-0.041,0-0.041-0.229,0.017-0.248
			c0.397-0.038,0.586-0.094,0.72-0.167c0.112-0.059,0.209-0.286,0.209-2.138V2.647c0-1.852-0.097-2.077-0.209-2.136
			c-0.134-0.073-0.323-0.13-0.72-0.188c-0.058,0-0.058-0.23-0.017-0.23c0.472,0,1.02,0.021,1.415,0.021
			c0.379,0,0.797-0.021,1.269-0.021c1.57,0,2.459,0.834,2.459,1.668c0,0.81-0.608,1.474-1.343,1.908
			c1.398,2.025,2.156,2.704,2.967,2.704c0.098,0,0.229,0,0.303,0c0.039-0.017,0.075,0.229,0.055,0.229
			C79.573,6.638,79.385,6.66,79.139,6.66z M75.337,0.475c-0.358,0-0.587,0.056-0.623,0.13c-0.076,0.079-0.172,0.702-0.172,2.042
			c0,0.608,0.04,0.682,0.097,0.74c0.112,0.094,0.321,0.169,0.812,0.169c0.777,0,1.306-0.682,1.306-1.456
			C76.756,1.192,76.341,0.475,75.337,0.475z"/>
		<path fill="#666666" d="M85.378,6.301c-0.131,0.188-0.832,0.468-2.081,0.468c-2.156,0-3.744-1.472-3.744-3.308
			C79.554,1.723,80.953,0,83.279,0c1.189,0,1.797,0.381,2.174,0.303c0.04-0.019,0.057,0.021,0.057,0.036
			c0.02,0.361,0.04,0.91,0.04,1.459c0,0.055-0.266,0.037-0.266-0.021c-0.019-0.264-0.188-0.604-0.397-0.813
			c-0.379-0.36-1.002-0.583-1.722-0.583c-1.89,0-2.571,1.342-2.571,2.795c0,1.646,1.06,3.18,2.723,3.18
			c0.776,0,1.287-0.135,1.645-0.55c0.209-0.265,0.34-0.587,0.436-0.888c0.019-0.058,0.246,0,0.246,0.037
			C85.604,5.484,85.474,6.167,85.378,6.301z"/>
		<path fill="#666666" d="M91.636,6.678c-0.039,0-0.039-0.229,0-0.248c0.417-0.038,0.587-0.094,0.72-0.167
			c0.131-0.059,0.227-0.286,0.227-2.138V3.518h-3.802v0.606c0,1.852,0.095,2.079,0.226,2.138c0.133,0.073,0.302,0.13,0.719,0.167
			c0.038,0.019,0.038,0.248,0.018,0.248c-0.51,0-2.344,0-2.837,0c-0.02,0-0.038-0.229,0.019-0.248
			c0.417-0.038,0.587-0.094,0.72-0.167c0.132-0.059,0.207-0.286,0.207-2.138V2.647c0-1.852-0.075-2.077-0.207-2.136
			c-0.132-0.073-0.302-0.13-0.72-0.188c-0.057,0-0.039-0.23-0.019-0.23c0.493,0,2.327,0,2.837,0c0.02,0,0.02,0.23-0.018,0.23
			c-0.417,0.058-0.586,0.114-0.719,0.188c-0.131,0.059-0.226,0.284-0.226,2.136v0.455h3.802V2.647c0-1.852-0.096-2.077-0.227-2.136
			c-0.132-0.073-0.303-0.13-0.72-0.188c-0.039,0-0.039-0.23,0-0.23c0.491,0,2.327,0,2.818,0c0.039,0,0.039,0.23-0.019,0.23
			c-0.397,0.058-0.587,0.114-0.717,0.188c-0.115,0.059-0.21,0.284-0.21,2.136v1.478c0,1.852,0.095,2.079,0.21,2.138
			c0.13,0.073,0.32,0.13,0.717,0.167c0.058,0.019,0.058,0.248,0.019,0.248C93.963,6.678,92.127,6.678,91.636,6.678z"/>
		<path fill="#666666" d="M101.956,6.77c-2.003,0-3.499-1.472-3.499-3.308C98.458,1.723,99.953,0,102.09,0
			c2.003,0,3.498,1.478,3.498,3.311C105.587,5.052,104.093,6.77,101.956,6.77z M101.88,0.417c-1.853,0-2.381,1.512-2.381,2.76
			c0,1.646,0.983,3.18,2.665,3.18c1.854,0,2.382-1.515,2.382-2.764C104.547,1.949,103.565,0.417,101.88,0.417z"/>
		<path fill="#666666" d="M111.202,1.457c0,0.038-0.263,0.038-0.263-0.037c0-0.246-0.057-0.474-0.208-0.625
			c-0.171-0.19-0.548-0.339-1.287-0.339c-0.413,0-0.793,0.019-0.906,0.035c-0.019,0.095-0.039,0.492-0.039,1.137v1.493h0.74
			c0.999,0,1.132-0.112,1.19-0.474c0.019-0.036,0.265-0.018,0.265,0c-0.019,0.284-0.058,1.306-0.058,1.591
			c0,0.018-0.265,0.018-0.265-0.021c0-0.188-0.038-0.397-0.152-0.491c-0.094-0.093-0.243-0.151-1.002-0.151h-0.718v0.551
			c0,1.852,0.095,2.079,0.227,2.138c0.135,0.073,0.455,0.13,0.911,0.167c0.035,0.019,0.035,0.248,0.016,0.248
			c-0.509,0-2.532,0-3.025,0c-0.036,0-0.036-0.229,0.021-0.248c0.397-0.038,0.583-0.094,0.715-0.167
			c0.114-0.059,0.21-0.286,0.21-2.138V2.647c0-1.852-0.096-2.136-0.21-2.191c-0.131-0.075-0.317-0.132-0.715-0.172
			c-0.058-0.02-0.058-0.19-0.021-0.19c0.813,0.021,2.156,0.021,2.817,0.021c0.89,0,1.496-0.021,1.815-0.037
			c0.039-0.02,0.058,0.017,0.058,0.037C111.297,0.456,111.258,0.908,111.202,1.457z"/>
		<path fill="#666666" d="M6.34,14.164c-0.782,0.081-1.283,0.141-1.523,0.279c-0.262,0.141-0.482,0.684-0.422,4.337l0.062,5.437
			c0.039,3.51-0.783,5.055-4.275,6.682c-0.059,0.039-0.242-0.219-0.16-0.281c1.765-1.283,2.688-2.146,2.688-6.4V18.78
			c0-3.653-0.181-4.196-0.421-4.337c-0.241-0.138-0.762-0.198-1.545-0.279c-0.081-0.02-0.081-0.42-0.021-0.42
			c0.943,0,4.696,0,5.639,0C6.422,13.744,6.441,14.144,6.34,14.164z"/>
		<path fill="#666666" d="M17.193,26.524c-0.099,0.119-0.703,0.24-1.545,0.24c-1.203,0-1.827-0.061-3.492-0.061
			c-1.304,0-2.268,0.021-3.691,0.041c-0.061,0-0.061-0.402,0.021-0.424c0.783-0.076,1.243-0.139,1.483-0.279s0.421-0.68,0.421-4.334
			V18.78c0-3.653-0.18-4.196-0.421-4.337c-0.241-0.138-0.7-0.198-1.483-0.279c-0.081-0.02-0.081-0.42-0.021-0.42
			c1.564,0.018,4.193,0.039,5.499,0.039c1.685,0,2.346-0.021,2.948-0.099c0.103,0,0.121,0.039,0.121,0.078
			c-0.04,0.703-0.1,1.704-0.219,2.789c-0.021,0.082-0.441,0.061-0.441-0.06c0-0.481-0.161-1.025-0.463-1.364
			c-0.421-0.42-0.902-0.602-2.045-0.602c-0.783,0-1.523,0-1.706,0.04c-0.062,0.201-0.08,0.944-0.08,2.208v2.848h1.645
			c1.906,0,1.945-0.54,2.066-1.265c0.021-0.08,0.443-0.058,0.443,0c-0.021,0.544-0.08,3.05-0.1,3.615
			c0,0.057-0.443,0.057-0.443-0.02c0-0.363-0.1-1.044-0.28-1.248c-0.181-0.18-0.282-0.3-1.706-0.3h-1.625v1.344
			c0,2.588,0.121,3.771,0.301,3.951c0.181,0.182,0.801,0.264,1.985,0.264c1.246,0,1.706-0.301,2.068-0.684
			c0.239-0.262,0.48-0.842,0.663-1.605c0.019-0.102,0.439-0.02,0.439,0.08C17.434,25.018,17.215,26.483,17.193,26.524z"/>
		<path fill="#666666" d="M23.775,27.008c-1.664,0-3.028-0.744-3.21-1.006c-0.02-0.039-0.22-2.129-0.121-3.15
			c0-0.1,0.441-0.121,0.462,0c0.04,0.764,0.421,1.785,0.702,2.209c0.503,0.762,1.366,1.26,2.588,1.26
			c1.386,0,2.148-0.922,2.148-2.365c0-3.171-5.277-3.33-5.277-6.982c0-1.909,1.544-3.551,3.652-3.551
			c1.524,0,1.747,0.479,2.61,0.377c0.081-0.017,0.119,0.021,0.119,0.063c0,0.702,0.041,1.884,0,2.97
			c-0.02,0.062-0.442,0.062-0.46-0.041c-0.061-0.801-0.242-1.504-0.623-1.945c-0.441-0.48-1.003-0.784-1.865-0.784
			c-1.085,0-1.908,0.946-1.908,2.188c0,2.709,5.359,3.371,5.359,6.842C27.95,25.6,25.801,27.008,23.775,27.008z"/>
		<path fill="#666666" d="M42.56,14.503c-0.161,0.142-0.339,0.624-0.339,4.277v3.369c0,2.41-1.848,4.717-5.28,4.717
			c-3.131,0-5.037-2.068-5.037-4.676v-3.41c0-3.653-0.181-4.196-0.421-4.337c-0.263-0.138-0.602-0.198-1.386-0.279
			c-0.08-0.02-0.08-0.42-0.02-0.42c0.943,0,4.476,0,5.419,0c0.058,0,0.058,0.4-0.021,0.42c-0.781,0.081-1.203,0.141-1.466,0.279
			c-0.239,0.141-0.42,0.684-0.42,4.337v3.046c0,2.209,1.385,4.035,4.032,4.035c2.469,0,3.694-1.865,3.694-3.814V18.78
			c0-3.653-0.201-4.135-0.362-4.277c-0.223-0.198-0.682-0.258-1.485-0.339c-0.082-0.02-0.059-0.42,0-0.42c0.942,0,3.553,0,4.494,0
			c0.06,0,0.104,0.4,0,0.42C43.18,14.245,42.78,14.305,42.56,14.503z"/>
		<path fill="#666666" d="M49.261,27.008c-1.663,0-3.029-0.744-3.208-1.006c-0.021-0.039-0.223-2.129-0.123-3.15
			c0-0.1,0.442-0.121,0.462,0c0.04,0.764,0.421,1.785,0.703,2.209c0.503,0.762,1.366,1.26,2.588,1.26
			c1.385,0,2.148-0.922,2.148-2.365c0-3.171-5.277-3.33-5.277-6.982c0-1.909,1.542-3.551,3.65-3.551
			c1.526,0,1.746,0.479,2.609,0.377c0.081-0.017,0.12,0.021,0.12,0.063c0,0.702,0.041,1.884,0,2.97
			c-0.018,0.062-0.44,0.062-0.459-0.041c-0.062-0.801-0.241-1.504-0.621-1.945c-0.445-0.48-1.006-0.784-1.869-0.784
			c-1.084,0-1.907,0.946-1.907,2.188c0,2.709,5.356,3.371,5.356,6.842C53.434,25.6,51.288,27.008,49.261,27.008z"/>
		<path fill="#666666" d="M73.097,26.083c-0.06,0.1-1.403,0.943-3.99,0.943c-4.276,0-6.986-2.99-6.986-6.622
			c0-3.431,2.468-6.943,6.945-6.943c2.266,0,3.391,0.762,4.114,0.602c0.078-0.019,0.119,0.04,0.119,0.081
			c0.021,0.703,0.08,2.147,0.06,3.23c-0.019,0.082-0.44,0.082-0.462-0.04c-0.08-0.823-0.34-1.505-0.823-2.025
			c-0.603-0.623-1.867-1.146-3.21-1.146c-3.491,0-4.855,2.81-4.855,5.658c0,3.27,2.063,6.422,5.134,6.422
			c1.487,0,2.45-0.422,3.133-1.266c0.42-0.521,0.662-1.125,0.842-1.727c0.02-0.119,0.44-0.021,0.44,0.062
			C73.5,24.157,73.138,26.02,73.097,26.083z"/>
		<path fill="#666666" d="M85.44,26.745c-0.061,0-0.061-0.424,0.019-0.424c0.782-0.076,1.124-0.158,1.386-0.279
			c0.239-0.141,0.421-0.68,0.421-4.352v-1.226h-7.385v1.226c0,3.672,0.182,4.211,0.44,4.352c0.243,0.121,0.583,0.203,1.367,0.279
			c0.08,0,0.08,0.424,0.018,0.424c-0.942,0-4.374,0-5.317,0c-0.06,0-0.06-0.424,0.021-0.424c0.782-0.076,1.141-0.158,1.384-0.279
			c0.241-0.141,0.422-0.68,0.422-4.352v-2.91c0-3.673-0.182-4.196-0.422-4.337c-0.243-0.138-0.602-0.198-1.384-0.279
			c-0.082-0.02-0.082-0.42-0.021-0.42c0.943,0,4.375,0,5.317,0c0.062,0,0.062,0.4-0.018,0.42c-0.784,0.081-1.124,0.141-1.367,0.279
			c-0.259,0.141-0.44,0.664-0.44,4.337v0.94h7.385v-0.94c0-3.673-0.182-4.196-0.421-4.337c-0.262-0.138-0.604-0.198-1.386-0.279
			c-0.08-0.02-0.08-0.42-0.019-0.42c0.941,0,4.374,0,5.315,0c0.061,0,0.061,0.4-0.018,0.42c-0.784,0.081-1.125,0.141-1.386,0.279
			c-0.24,0.141-0.42,0.664-0.42,4.337v2.91c0,3.672,0.18,4.211,0.42,4.352c0.261,0.121,0.602,0.203,1.386,0.279
			c0.079,0,0.079,0.424,0.018,0.424C89.813,26.745,86.381,26.745,85.44,26.745z"/>
		<path fill="#666666" d="M105.926,26.745c-1.746,0-2.688-0.199-3.473-0.725c-1.022-0.699-2.105-2.064-3.73-4.812
			c-0.985,0.019-1.386,0.019-2.149-0.021v0.52c0,3.654,0.183,4.193,0.422,4.334c0.261,0.141,0.863,0.182,1.746,0.279
			c0.081,0.021,0.081,0.424,0.019,0.424c-0.941,0-4.736,0-5.677,0c-0.062,0-0.083-0.402,0.019-0.424
			c0.782-0.076,1.124-0.139,1.365-0.279c0.261-0.141,0.421-0.68,0.421-4.334V18.78c0-3.653-0.16-4.196-0.421-4.337
			c-0.241-0.138-0.583-0.198-1.365-0.279c-0.102-0.02-0.082-0.42-0.019-0.42c0.882,0,1.905,0.039,2.647,0.039
			c0.741,0,1.545-0.039,2.447-0.039c2.991,0,4.496,1.664,4.496,3.19c0,1.605-1.004,2.888-2.409,3.748
			c2.851,4.256,4.457,5.624,5.8,5.624c0.782,0,1.266-0.123,1.507-0.264c0.24-0.141,0.419-0.68,0.419-4.334V18.78
			c0-3.653-0.179-4.196-0.419-4.337c-0.242-0.138-0.764-0.198-1.546-0.279c-0.08-0.02-0.08-0.42-0.021-0.42c0.942,0,4.694,0,5.638,0
			c0.081,0,0.081,0.4-0.021,0.42c-0.781,0.081-1.282,0.141-1.524,0.279c-0.259,0.141-0.42,0.684-0.42,4.337v2.927
			c0,3.654,0.161,4.193,0.42,4.334c0.243,0.141,0.743,0.203,1.524,0.279c0.102,0.021,0.102,0.424,0.021,0.424
			C110.7,26.745,106.888,26.745,105.926,26.745z M98.141,14.424c-0.683,0-1.285,0.101-1.345,0.182
			c-0.101,0.12-0.222,1.265-0.222,4.174c0,1.203,0.043,1.422,0.121,1.504c0.142,0.142,0.703,0.224,1.666,0.224
			c1.645,0,2.405-1.247,2.405-2.813C100.766,15.77,100.067,14.424,98.141,14.424z"/>
		<path fill="#666666" d="M117.342,27.008c-1.667,0-3.032-0.744-3.21-1.006c-0.02-0.039-0.223-2.129-0.121-3.15
			c0-0.1,0.44-0.121,0.459,0c0.041,0.764,0.424,1.785,0.703,2.209c0.5,0.762,1.365,1.26,2.589,1.26c1.384,0,2.147-0.922,2.147-2.365
			c0-3.171-5.277-3.33-5.277-6.982c0-1.909,1.545-3.551,3.653-3.551c1.526,0,1.746,0.479,2.606,0.377
			c0.082-0.017,0.123,0.021,0.123,0.063c0,0.702,0.039,1.884,0,2.97c-0.02,0.062-0.443,0.062-0.462-0.041
			c-0.061-0.801-0.242-1.504-0.621-1.945c-0.44-0.48-1.006-0.784-1.867-0.784c-1.084,0-1.909,0.946-1.909,2.188
			c0,2.709,5.359,3.371,5.359,6.842C121.515,25.6,119.366,27.008,117.342,27.008z"/>
		<path fill="#666666" d="M134.839,16.974c-0.019,0.1-0.44,0.1-0.44-0.04c0-0.505-0.06-1.468-0.402-1.827
			c-0.402-0.421-1.222-0.763-2.989-0.763c-0.462,0-0.703,0-0.902,0.039c-0.06,0.201-0.082,1.165-0.082,2.428v4.896
			c0,3.654,0.18,4.193,0.422,4.334c0.24,0.141,0.743,0.203,1.545,0.279c0.081,0.021,0.081,0.424,0.021,0.424
			c-0.963,0-4.697,0-5.657,0c-0.062,0-0.062-0.402,0.039-0.424c0.782-0.076,1.285-0.139,1.525-0.279
			c0.26-0.141,0.421-0.68,0.421-4.334v-4.896c0-1.264-0.021-2.228-0.08-2.428c-0.202-0.039-0.542-0.039-1.005-0.039
			c-1.885,0-2.528,0.201-2.99,0.763c-0.32,0.38-0.522,1.083-0.662,1.866c-0.021,0.139-0.44,0.078-0.44-0.04
			c0.119-1.044,0.239-2.568,0.301-3.25c0-0.062,0.1-0.102,0.241-0.083c0.7,0.122,1.985,0.219,5.477,0.219
			c4.796,0,5.237-0.136,5.6-0.256C134.9,13.522,135,13.582,135,13.643C135,14.402,134.959,15.909,134.839,16.974z"/>
		<path fill="#666666" d="M11.68,40.45c-2.004,0-3.499-1.475-3.499-3.311c0-1.74,1.495-3.461,3.631-3.461
			c2.003,0,3.497,1.475,3.497,3.311C15.309,38.729,13.816,40.45,11.68,40.45z M11.603,34.094c-1.853,0-2.382,1.516-2.382,2.766
			c0,1.643,0.984,3.174,2.667,3.174c1.853,0,2.382-1.514,2.382-2.764C14.27,35.627,13.288,34.094,11.603,34.094z"/>
		<path fill="#666666" d="M20.981,35.137c0,0.037-0.263,0.037-0.263-0.039c0-0.246-0.057-0.473-0.208-0.623
			c-0.171-0.191-0.548-0.344-1.287-0.344c-0.414,0-0.794,0.021-0.907,0.039c-0.017,0.096-0.036,0.492-0.036,1.135v1.496h0.736
			c1.001,0,1.136-0.115,1.191-0.477c0.02-0.035,0.265-0.018,0.265,0c-0.019,0.287-0.056,1.307-0.056,1.592
			c0,0.018-0.264,0.018-0.264-0.02c0-0.188-0.039-0.396-0.152-0.492c-0.094-0.094-0.245-0.15-1.002-0.15h-0.718v0.549
			c0,1.854,0.094,2.078,0.226,2.137c0.132,0.074,0.454,0.133,0.907,0.17c0.039,0.018,0.039,0.244,0.019,0.244
			c-0.51,0-2.534,0-3.025,0c-0.04,0-0.04-0.227,0.018-0.244c0.396-0.037,0.586-0.096,0.718-0.17
			c0.113-0.059,0.208-0.283,0.208-2.137v-1.479c0-1.85-0.095-2.135-0.208-2.193c-0.132-0.072-0.322-0.129-0.718-0.166
			c-0.058-0.021-0.058-0.191-0.018-0.191c0.813,0.02,2.154,0.02,2.816,0.02c0.89,0,1.496-0.02,1.818-0.039
			c0.037-0.02,0.057,0.02,0.057,0.039C21.077,34.131,21.04,34.584,20.981,35.137z"/>
		<path fill="#666666" d="M29.902,40.184c-0.076,0.117-0.188,0.189-0.455,0.189c-0.643,0-1.398-0.037-2.267-0.037
			c-0.683,0-1.174,0-1.93,0.018c-0.019,0-0.019-0.227,0.018-0.244c0.415-0.037,0.587-0.096,0.718-0.17
			c0.132-0.059,0.209-0.283,0.209-2.137v-1.479c0-1.85-0.077-2.078-0.209-2.135c-0.131-0.076-0.303-0.131-0.718-0.188
			c-0.037,0-0.037-0.229-0.018-0.229c0.491,0,2.345,0,2.836,0c0.02,0,0.02,0.229-0.018,0.229c-0.416,0.057-0.587,0.111-0.718,0.188
			c-0.133,0.057-0.209,0.285-0.209,2.135v1.479c0,1.229,0.095,1.795,0.228,1.945c0.113,0.113,0.265,0.191,0.871,0.191
			c0.583,0,0.982-0.152,1.229-0.438c0.228-0.264,0.396-0.699,0.473-1.02c0.02-0.057,0.265-0.021,0.265,0.037
			C30.147,39.051,29.996,40.034,29.902,40.184z"/>
		<path fill="#666666" d="M34.893,40.354c-0.017,0-0.036-0.227,0-0.244c0.322-0.02,0.531-0.096,0.531-0.248
			c0-0.168-0.131-0.508-0.738-1.945c0.021,0-2.062,0-2.079,0C32.116,39.202,32,39.579,32,39.807c0,0.172,0.152,0.266,0.587,0.303
			c0.057,0.018,0.036,0.244,0,0.244c-0.303,0-1.702,0-2.195,0c-0.036,0-0.036-0.227,0-0.244c0.322-0.02,0.51-0.076,0.662-0.191
			c0.209-0.15,0.455-0.527,1.041-2.115l0.569-1.479c0.32-0.85,0.66-1.74,0.925-2.531c0.02-0.076,0.435-0.076,0.473,0
			c0.303,0.889,0.587,1.605,0.944,2.531l0.586,1.479c0.794,1.906,0.91,2.021,1.098,2.137c0.188,0.113,0.34,0.15,0.642,0.17
			c0.039,0.018,0.021,0.244,0,0.244C36.842,40.354,35.386,40.354,34.893,40.354z M33.646,35.137l-0.852,2.307h1.72L33.646,35.137z"
			/>
		<path fill="#666666" d="M43.062,35.249c0,0.02-0.248,0.02-0.248-0.018c0-0.266-0.055-0.529-0.188-0.682
			c-0.207-0.189-0.492-0.34-1.627-0.34c-0.227,0-0.358,0.018-0.454,0.018c-0.039,0.113-0.057,0.51-0.057,1.152v2.424
			c0,1.854,0.097,2.078,0.228,2.137c0.131,0.074,0.397,0.133,0.814,0.17c0.035,0.018,0.035,0.244,0,0.244c-0.493,0-2.498,0-2.989,0
			c-0.038,0-0.038-0.227,0-0.244c0.414-0.037,0.681-0.096,0.812-0.17c0.131-0.059,0.208-0.283,0.208-2.137v-2.424
			c0-0.643,0-1.039-0.037-1.152c-0.095,0-0.284-0.018-0.512-0.018c-1.078,0-1.379,0.111-1.626,0.34
			c-0.17,0.152-0.265,0.453-0.321,0.699c0,0.039-0.244,0-0.244-0.037c0.055-0.51,0.112-1.117,0.149-1.477
			c0-0.018,0.02-0.037,0.058-0.037c0.378,0.057,1.191,0.115,3.006,0.115c2.497,0,2.875-0.059,3.066-0.135
			c0.036,0,0.057,0.02,0.057,0.039C43.158,34.114,43.137,34.702,43.062,35.249z"/>
		<path fill="#666666" d="M50.077,35.249c0,0.02-0.248,0.02-0.248-0.018c0-0.266-0.058-0.529-0.187-0.682
			c-0.208-0.189-0.494-0.34-1.63-0.34c-0.227,0-0.357,0.018-0.453,0.018c-0.036,0.113-0.057,0.51-0.057,1.152v2.424
			c0,1.854,0.095,2.078,0.228,2.137c0.132,0.074,0.398,0.133,0.814,0.17c0.035,0.018,0.035,0.244,0,0.244c-0.493,0-2.497,0-2.987,0
			c-0.04,0-0.04-0.227,0-0.244c0.414-0.037,0.678-0.096,0.81-0.17c0.136-0.059,0.208-0.283,0.208-2.137v-2.424
			c0-0.643,0-1.039-0.037-1.152c-0.095,0-0.283-0.018-0.509-0.018c-1.078,0-1.383,0.111-1.627,0.34
			c-0.171,0.152-0.265,0.453-0.322,0.699c0,0.039-0.246,0-0.246-0.037c0.058-0.51,0.113-1.117,0.151-1.477
			c0-0.018,0.02-0.037,0.058-0.037c0.377,0.057,1.188,0.115,3.008,0.115c2.494,0,2.871-0.059,3.061-0.135
			c0.039,0,0.055,0.02,0.055,0.039C50.168,34.114,50.152,34.702,50.077,35.249z"/>
		<path fill="#666666" d="M55.635,40.184c-0.077,0.117-0.133,0.189-0.397,0.189c-0.645,0-1.399-0.037-2.271-0.037
			c-0.681,0-1.095,0-1.833,0.018c-0.04,0-0.04-0.227,0-0.244c0.415-0.037,0.603-0.096,0.718-0.17
			c0.131-0.059,0.228-0.283,0.228-2.137v-1.479c0-1.85-0.096-2.078-0.228-2.135c-0.115-0.076-0.303-0.131-0.718-0.188
			c-0.04,0-0.04-0.229,0-0.229c0.812,0.02,2.097,0.02,2.778,0.02c0.871,0,1.362-0.02,1.665-0.039c0.057-0.02,0.076,0.02,0.076,0.039
			c-0.041,0.338-0.059,0.832-0.116,1.359c-0.018,0.059-0.264,0.037-0.264-0.016c0-0.266-0.058-0.512-0.209-0.684
			c-0.171-0.17-0.473-0.264-1.21-0.264c-0.417,0-0.7,0.02-0.811,0.02c-0.041,0.111-0.041,0.453-0.041,1.096v1.42h0.777
			c1.003,0,1.132-0.227,1.191-0.588c0.02-0.039,0.266-0.039,0.266,0c-0.021,0.287-0.057,1.494-0.057,1.76
			c0,0.037-0.268,0.037-0.268,0c0-0.188-0.035-0.453-0.149-0.549c-0.093-0.078-0.246-0.188-1.002-0.188h-0.758v0.643
			c0,1.229,0.095,1.795,0.229,1.945c0.132,0.113,0.264,0.191,0.889,0.191c0.643,0,1.002-0.152,1.192-0.361
			c0.152-0.148,0.265-0.359,0.341-0.701c0.018-0.057,0.206,0,0.187,0.039C55.805,39.448,55.709,40.034,55.635,40.184z"/>
		<path fill="#666666" d="M63.746,40.336c-0.643,0-1.172-0.076-1.569-0.357c-0.549-0.342-1.114-1.004-1.948-2.385
			c-0.511,0.018-0.68,0-1.077-0.02v0.229c0,1.854,0.094,2.078,0.226,2.137c0.131,0.074,0.454,0.133,0.907,0.17
			c0.039,0.018,0.039,0.244,0.018,0.244c-0.492,0-2.531,0-3.026,0c-0.034,0-0.034-0.227,0.021-0.244
			c0.398-0.037,0.588-0.096,0.719-0.17c0.112-0.059,0.206-0.283,0.206-2.137v-1.479c0-1.85-0.094-2.078-0.206-2.135
			c-0.131-0.076-0.321-0.131-0.719-0.188c-0.054,0-0.054-0.229-0.021-0.229c0.474,0,1.025,0.02,1.422,0.02
			c0.375,0,0.792-0.02,1.264-0.02c1.571,0,2.459,0.832,2.459,1.664c0,0.814-0.604,1.475-1.343,1.91
			c1.4,2.023,2.157,2.705,2.969,2.705c0.094,0,0.228,0,0.303,0c0.036-0.02,0.076,0.227,0.056,0.227
			C64.183,40.315,63.994,40.336,63.746,40.336z M59.946,34.153c-0.359,0-0.586,0.057-0.625,0.131
			c-0.075,0.076-0.168,0.701-0.168,2.041c0,0.607,0.037,0.682,0.094,0.742c0.114,0.094,0.32,0.168,0.813,0.168
			c0.775,0,1.304-0.68,1.304-1.455C61.363,34.872,60.948,34.153,59.946,34.153z"/>
		<path fill="#666666" d="M67.545,37.215c-0.039,0.055-0.113,0.076-0.246,0.076l-1.268,0.02c-1.21,0-1.455,0.17-1.566,0.434
			c-0.022,0.039-0.248-0.02-0.248-0.055c0.02-0.229,0.058-0.701,0.094-0.912l1.552-0.018c1.21,0,1.399-0.188,1.549-0.436
			c0.021-0.035,0.227,0.02,0.227,0.041C67.62,36.592,67.584,37.161,67.545,37.215z"/>
		<path fill="#666666" d="M74.731,39.354c-0.719,0.699-1.514,1-2.837,1c-0.474,0-1.208-0.018-1.607-0.018
			c-0.378,0-0.946,0.018-1.398,0.018c-0.039,0-0.039-0.227,0-0.244c0.415-0.037,0.586-0.096,0.717-0.17
			c0.135-0.059,0.229-0.283,0.229-2.137v-1.479c0-1.85-0.094-2.078-0.229-2.135c-0.131-0.076-0.302-0.131-0.717-0.188
			c-0.039,0-0.039-0.229,0-0.229c0.453,0,1.021,0.02,1.398,0.02c0.399,0,1.362-0.02,1.817-0.02c2.116,0,3.706,1.379,3.706,3.215
			C75.809,37.86,75.374,38.729,74.731,39.354z M71.8,34.153c-0.643,0-0.813,0.094-0.888,0.188c-0.058,0.076-0.151,0.549-0.151,1.949
			v1.514c0,1.229,0.094,1.756,0.226,1.906c0.188,0.189,0.339,0.246,0.888,0.246c2.043,0,2.915-0.889,2.915-2.795
			C74.789,35.61,73.785,34.153,71.8,34.153z"/>
		<path fill="#666666" d="M80.461,40.354c-0.02,0-0.036-0.227,0-0.244c0.322-0.02,0.532-0.096,0.532-0.248
			c0-0.168-0.135-0.508-0.739-1.945c0.019,0-2.061,0-2.081,0c-0.492,1.285-0.605,1.662-0.605,1.891c0,0.172,0.151,0.266,0.587,0.303
			c0.056,0.018,0.038,0.244,0,0.244c-0.303,0-1.701,0-2.193,0c-0.04,0-0.04-0.227,0-0.244c0.323-0.02,0.511-0.076,0.663-0.191
			c0.206-0.15,0.454-0.527,1.04-2.115l0.565-1.479c0.323-0.85,0.663-1.74,0.927-2.531c0.019-0.076,0.434-0.076,0.474,0
			c0.301,0.889,0.587,1.605,0.943,2.531l0.587,1.479c0.794,1.906,0.908,2.021,1.097,2.137c0.19,0.113,0.339,0.15,0.643,0.17
			c0.039,0.018,0.02,0.244,0,0.244C82.41,40.354,80.953,40.354,80.461,40.354z M79.213,35.137l-0.851,2.307h1.722L79.213,35.137z"/>
		<path fill="#666666" d="M88.176,34.114c-0.265,0.133-0.472,0.416-1.003,1.266l-0.565,0.91c-0.246,0.377-0.491,0.793-0.72,1.172
			v0.342c0,1.854,0.094,2.078,0.209,2.137c0.132,0.074,0.397,0.133,0.813,0.17c0.037,0.018,0.037,0.244,0,0.244
			c-0.493,0-2.498,0-2.989,0c-0.039,0-0.039-0.227,0-0.244c0.415-0.037,0.681-0.096,0.812-0.17c0.134-0.059,0.208-0.283,0.208-2.137
			V37.5c-0.226-0.398-0.454-0.775-0.736-1.211l-0.587-0.91c-0.662-1.02-0.83-1.209-1.021-1.266c-0.17-0.076-0.377-0.096-0.68-0.111
			c-0.038,0-0.038-0.248,0-0.248c0.491,0,2.023,0,2.515,0c0.036,0,0.056,0.248,0,0.248c-0.227,0.016-0.341,0.035-0.436,0.092
			c-0.075,0.037-0.036,0.189,0.623,1.193l1.023,1.682l1.058-1.664c0.55-0.869,0.645-1.096,0.493-1.191
			c-0.095-0.055-0.228-0.096-0.511-0.111c-0.038,0-0.017-0.248,0-0.248c0.322,0,1.723,0,2.214,0c0.037,0,0.037,0.248,0,0.248
			C88.592,34.018,88.328,34.059,88.176,34.114z"/>
		<path fill="#666666" d="M94.088,40.45c-0.982,0-1.663-0.494-1.685-0.604c-0.075-0.344-0.075-0.93-0.017-1.459
			c0-0.035,0.245-0.055,0.245,0c0.038,0.4,0.188,0.758,0.342,0.984c0.301,0.396,0.7,0.682,1.304,0.682
			c0.756,0,1.136-0.494,1.136-1.193c0-1.492-2.782-1.758-2.782-3.439c0-1.043,0.983-1.779,1.948-1.779
			c0.794,0,1.002,0.285,1.382,0.189c0.035-0.018,0.072,0.018,0.072,0.039c-0.017,0.357,0,0.867-0.017,1.418
			c0,0.037-0.247,0.037-0.266,0c-0.018-0.322-0.169-0.719-0.338-0.891c-0.229-0.227-0.608-0.359-0.929-0.359
			c-0.584,0-1.02,0.398-1.02,1.023c0,1.264,2.875,1.758,2.875,3.422C96.341,39.749,95.148,40.45,94.088,40.45z"/>
		<path fill="#666666" d="M101.141,40.354c-0.018,0-0.038-0.227,0-0.244c0.322-0.02,0.53-0.096,0.53-0.248
			c0-0.168-0.133-0.508-0.739-1.945c0.022,0-2.06,0-2.079,0c-0.492,1.285-0.606,1.662-0.606,1.891c0,0.172,0.154,0.266,0.587,0.303
			c0.055,0.018,0.039,0.244,0,0.244c-0.302,0-1.701,0-2.192,0c-0.039,0-0.039-0.227,0-0.244c0.321-0.02,0.508-0.076,0.66-0.191
			c0.209-0.15,0.455-0.527,1.042-2.115l0.568-1.479c0.319-0.85,0.662-1.74,0.926-2.531c0.019-0.076,0.433-0.076,0.472,0
			c0.303,0.889,0.586,1.605,0.946,2.531l0.586,1.479c0.795,1.906,0.911,2.021,1.099,2.137c0.189,0.113,0.338,0.15,0.641,0.17
			c0.038,0.018,0.02,0.244,0,0.244C103.088,40.354,101.635,40.354,101.141,40.354z M99.895,35.137l-0.852,2.307h1.72L99.895,35.137z
			"/>
		<path fill="#666666" d="M103.73,40.354c-0.021,0-0.021-0.227,0.021-0.244c0.414-0.037,0.678-0.096,0.794-0.17
			c0.131-0.059,0.225-0.283,0.225-2.137v-1.479c0-1.85-0.094-2.078-0.225-2.135c-0.116-0.076-0.38-0.131-0.794-0.188
			c-0.041,0-0.041-0.229-0.021-0.229c0.492,0,2.516,0,3.007,0c0.019,0,0.019,0.229-0.017,0.229
			c-0.418,0.057-0.682,0.111-0.794,0.188c-0.134,0.057-0.229,0.285-0.229,2.135v1.479c0,1.854,0.095,2.078,0.229,2.137
			c0.112,0.074,0.375,0.133,0.794,0.17c0.036,0.018,0.036,0.244,0.017,0.244C106.246,40.354,104.222,40.354,103.73,40.354z"/>
		<path fill="#666666" d="M114.642,34.209c-0.094,0.074-0.208,0.266-0.188,2.115v1.479c0,0.852,0,1.756,0.057,2.551
			c0,0.057-0.323,0.078-0.379,0.02l-5.01-5.068l0.039,2.498c0.017,1.699,0.151,2.021,0.301,2.137c0.094,0.074,0.454,0.17,0.736,0.17
			c0.058,0,0.039,0.244,0,0.244c-0.528,0-2.041,0-2.534,0c-0.037,0-0.037-0.227,0-0.244c0.417-0.037,0.663-0.096,0.777-0.191
			c0.094-0.072,0.206-0.262,0.168-2.115l-0.019-1.479c0-0.85,0-1.756-0.056-2.551c0-0.057,0.358-0.076,0.378-0.02l5.028,5.105
			l-0.035-2.535c-0.019-1.85-0.171-2.059-0.285-2.135c-0.131-0.096-0.377-0.152-0.814-0.188c-0.055,0-0.036-0.229,0-0.229
			c0.493,0,2.062,0,2.555,0c0.04,0,0.056,0.229,0,0.229C114.945,34.059,114.755,34.114,114.642,34.209z"/>
		<path fill="#666666" d="M122.168,35.249c0,0.02-0.247,0.02-0.247-0.018c0-0.266-0.057-0.529-0.19-0.682
			c-0.207-0.189-0.491-0.34-1.625-0.34c-0.226,0-0.357,0.018-0.454,0.018c-0.039,0.113-0.058,0.51-0.058,1.152v2.424
			c0,1.854,0.094,2.078,0.229,2.137c0.131,0.074,0.397,0.133,0.813,0.17c0.037,0.018,0.037,0.244,0,0.244c-0.493,0-2.498,0-2.989,0
			c-0.039,0-0.039-0.227,0-0.244c0.417-0.037,0.684-0.096,0.813-0.17c0.131-0.059,0.207-0.283,0.207-2.137v-2.424
			c0-0.643,0-1.039-0.036-1.152c-0.095,0-0.284-0.018-0.513-0.018c-1.076,0-1.379,0.111-1.625,0.34
			c-0.171,0.152-0.266,0.453-0.322,0.699c0,0.039-0.246,0-0.246-0.037c0.055-0.51,0.113-1.117,0.153-1.477
			c0-0.018,0.018-0.037,0.054-0.037c0.378,0.057,1.191,0.115,3.008,0.115c2.498,0,2.876-0.059,3.063-0.135
			c0.038,0,0.057,0.02,0.057,0.039C122.262,34.114,122.243,34.702,122.168,35.249z"/>
		<path fill="#666666" d="M124.624,40.45c-0.984,0-1.664-0.494-1.683-0.604c-0.075-0.344-0.075-0.93-0.018-1.459
			c0-0.035,0.246-0.055,0.246,0c0.038,0.4,0.19,0.758,0.34,0.984c0.302,0.396,0.699,0.682,1.303,0.682
			c0.759,0,1.136-0.494,1.136-1.193c0-1.492-2.779-1.758-2.779-3.439c0-1.043,0.984-1.779,1.947-1.779
			c0.794,0,1.002,0.285,1.381,0.189c0.038-0.018,0.074,0.018,0.074,0.039c-0.017,0.357,0,0.867-0.017,1.418
			c0,0.037-0.246,0.037-0.265,0c-0.021-0.322-0.172-0.719-0.342-0.891c-0.228-0.227-0.604-0.359-0.927-0.359
			c-0.587,0-1.02,0.398-1.02,1.023c0,1.264,2.873,1.758,2.873,3.422C126.874,39.749,125.683,40.45,124.624,40.45z"/>
	</g>
</g>
</svg>
